<svg width="137" height="40" viewBox="0 0 137 40" fill="none" xmlns="http://www.w3.org/2000/svg">
<g id="2" clip-path="url(#clip0_698_439)">
<rect width="136.271" height="40" transform="translate(0.271484)" fill="white"/>
<path id="Vector" d="M133.244 0.555664H3.05296C1.82422 0.555664 0.828125 1.55059 0.828125 2.77789V37.2223C0.828125 38.4496 1.82422 39.4446 3.05296 39.4446H133.244C134.472 39.4446 135.468 38.4496 135.468 37.2223V2.77789C135.468 1.55059 134.472 0.555664 133.244 0.555664Z" stroke="#1A1A1A" stroke-width="2"/>
<path id="Vector_2" d="M32.4235 19.0651C32.3977 15.9889 34.9462 14.4895 35.0648 14.4225C33.6204 12.3201 31.3814 12.0316 30.5921 12.011C28.7092 11.8152 26.8881 13.1343 25.9286 13.1343C24.9536 13.1343 23.4781 12.0316 21.8841 12.0625C19.836 12.0934 17.9221 13.2786 16.8749 15.113C14.7081 18.859 16.3229 24.3621 18.4019 27.392C19.4388 28.876 20.6511 30.53 22.24 30.4733C23.7928 30.4115 24.3758 29.484 26.2484 29.484C28.1056 29.484 28.6524 30.4733 30.2723 30.4373C31.9386 30.4115 32.991 28.9481 33.9918 27.4538C35.1938 25.7534 35.6736 24.0788 35.6942 23.9963C35.653 23.9705 32.4545 22.7494 32.4235 19.0651ZM29.3644 10.0169C30.2001 8.97086 30.7727 7.55386 30.6128 6.11108C29.4056 6.16258 27.8889 6.94581 27.0222 7.96608C26.2536 8.86781 25.5623 10.3415 25.7429 11.7276C27.0945 11.8255 28.4925 11.0423 29.3644 10.0169Z" fill="#1A1A1A"/>
<path id="Vector_3" d="M54.9255 30.2518H52.7536L51.562 26.5212H47.4297L46.2948 30.2518H44.1797L48.2758 17.5451H50.8036L54.9255 30.2518ZM51.206 24.9547L50.1278 21.6364C50.0143 21.2963 49.7976 20.4976 49.4881 19.2403H49.452C49.3282 19.7814 49.1218 20.5801 48.8484 21.6364L47.7909 24.9547H51.206ZM65.4394 25.5576C65.4394 27.1138 65.0162 28.3453 64.1702 29.2522C63.4115 30.056 62.4676 30.4579 61.343 30.4579C60.1254 30.4579 59.2538 30.0251 58.7227 29.1594V33.967H56.6847V24.0994C56.6847 23.1204 56.6591 22.1156 56.6074 21.0902H58.4023L58.5163 22.5433H58.5519C59.2333 21.4509 60.265 20.8995 61.6472 20.8995C62.7307 20.8995 63.6334 21.3272 64.3559 22.1826C65.0779 23.038 65.4394 24.1664 65.4394 25.5576ZM63.3653 25.6349C63.3653 24.7435 63.164 24.0067 62.7618 23.4296C62.323 22.8267 61.7301 22.5278 60.987 22.5278C60.487 22.5278 60.0275 22.6978 59.6198 23.0276C59.2127 23.3626 58.944 23.8006 58.8206 24.3364C58.7638 24.5374 58.7327 24.7486 58.7277 24.9547V26.4851C58.7277 27.1498 58.934 27.7115 59.3417 28.1752C59.7489 28.6338 60.2806 28.8657 60.9353 28.8657C61.7039 28.8657 62.3024 28.5668 62.7307 27.9795C63.1484 27.3817 63.3653 26.6036 63.3653 25.6349ZM75.9941 25.5576C75.9941 27.1138 75.5713 28.3453 74.7248 29.2522C73.9667 30.056 73.0228 30.4579 71.8981 30.4579C70.6806 30.4579 69.8085 30.0251 69.2773 29.1594V33.967H67.2393V24.0994C67.2393 23.1204 67.2137 22.1156 67.162 21.0902H68.9575L69.0709 22.5433H69.1071C69.7879 21.4509 70.8196 20.8995 72.2024 20.8995C73.2859 20.8995 74.1886 21.3272 74.9106 22.1826C75.6281 23.038 75.9941 24.1664 75.9941 25.5576ZM73.9149 25.6349C73.9149 24.7435 73.7142 24.0067 73.3115 23.4296C72.8732 22.8267 72.2797 22.5278 71.5372 22.5278C71.0366 22.5278 70.5771 22.6978 70.1644 23.0276C69.7573 23.3626 69.4886 23.8006 69.3652 24.3364C69.3029 24.5889 69.2673 24.795 69.2673 24.9547V26.4851C69.2673 27.1498 69.4736 27.7115 69.8808 28.1752C70.2885 28.6338 70.8196 28.8657 71.4804 28.8657C72.2485 28.8657 72.847 28.5668 73.2753 27.9795C73.7036 27.3817 73.9149 26.6036 73.9149 25.6349ZM87.7924 26.6912C87.7924 27.7733 87.4158 28.6545 86.6627 29.3295C85.8373 30.0715 84.6765 30.4425 83.1959 30.4425C81.8287 30.4425 80.7302 30.1797 79.8992 29.6489L80.3686 27.9537C81.2614 28.4844 82.2464 28.7472 83.3143 28.7472C84.083 28.7472 84.6815 28.572 85.1098 28.2267C85.538 27.8815 85.7544 27.4178 85.7544 26.8407C85.7544 26.3254 85.5742 25.8926 85.2232 25.537C84.8723 25.1866 84.2894 24.8568 83.4695 24.558C81.2408 23.7284 80.1261 22.5123 80.1261 20.9202C80.1261 19.8793 80.5183 19.024 81.3075 18.3592C82.0918 17.6945 83.1341 17.3596 84.434 17.3596C85.5898 17.3596 86.5542 17.5606 87.3229 17.9625L86.8123 19.6217C86.0898 19.2301 85.28 19.0394 84.3667 19.0394C83.6497 19.0394 83.0824 19.2146 82.6797 19.565C82.3393 19.8793 82.1691 20.2606 82.1691 20.7141C82.1691 21.2138 82.3654 21.6312 82.7576 21.9558C83.098 22.2547 83.7115 22.5845 84.6042 22.9349C85.6977 23.378 86.5025 23.8881 87.0187 24.4807C87.5343 25.0733 87.7924 25.8101 87.7924 26.6912ZM94.5503 22.6206H92.301V27.0674C92.301 28.201 92.6981 28.7626 93.4929 28.7626C93.8589 28.7626 94.1582 28.7317 94.4007 28.6699L94.4574 30.2157C94.0553 30.3652 93.5291 30.4425 92.8739 30.4425C92.069 30.4425 91.4394 30.1951 90.9855 29.7056C90.5317 29.2161 90.3048 28.3916 90.3048 27.2375V22.6206H88.9687V21.0953H90.3048V19.4156L92.3065 18.8127V21.0953H94.5553L94.5503 22.6206ZM104.667 25.5988C104.667 27.0056 104.264 28.165 103.46 29.0667C102.619 29.9993 101.5 30.4631 100.101 30.4631C98.7547 30.4631 97.6818 30.0148 96.8819 29.1285C96.0827 28.2371 95.6855 27.1086 95.6855 25.7535C95.6855 24.3313 96.0982 23.1719 96.9236 22.265C97.7491 21.3581 98.8581 20.9098 100.256 20.9098C101.602 20.9098 102.686 21.3581 103.501 22.2496C104.274 23.1101 104.667 24.2282 104.667 25.5988ZM102.552 25.6452C102.552 24.8053 102.371 24.084 102.005 23.4862C101.577 22.7597 100.968 22.3938 100.174 22.3938C99.3582 22.3938 98.7291 22.7597 98.3058 23.4862C97.9398 24.0891 97.7591 24.8208 97.7591 25.6865C97.7591 26.5263 97.9398 27.2477 98.3058 27.8506C98.7447 28.5771 99.3637 28.943 100.158 28.943C100.937 28.943 101.546 28.572 101.99 27.8352C102.366 27.2117 102.552 26.4851 102.552 25.6452ZM111.296 22.8833C111.084 22.8473 110.868 22.8267 110.651 22.8267C109.934 22.8267 109.382 23.0946 108.99 23.6357C108.65 24.1148 108.479 24.7177 108.479 25.4443V30.2518H106.441V23.9757C106.441 23.0122 106.426 22.0537 106.385 21.0902H108.16L108.231 22.8421H108.288C108.505 22.2392 108.84 21.7549 109.31 21.3891C109.733 21.0696 110.254 20.8995 110.785 20.8995C110.976 20.8995 111.141 20.915 111.296 20.9356V22.8833ZM120.412 25.2382C120.417 25.5473 120.391 25.8565 120.339 26.1605H114.221C114.242 27.0674 114.541 27.7578 115.108 28.2371C115.624 28.6647 116.29 28.876 117.11 28.876C118.018 28.876 118.843 28.7317 119.586 28.4432L119.906 29.855C119.039 30.2312 118.013 30.4218 116.831 30.4218C115.408 30.4218 114.293 30.0045 113.478 29.1697C112.668 28.335 112.261 27.2117 112.261 25.805C112.261 24.424 112.637 23.275 113.396 22.3578C114.185 21.3787 115.258 20.8892 116.605 20.8892C117.925 20.8892 118.926 21.3787 119.607 22.3578C120.138 23.1358 120.412 24.0942 120.412 25.2382ZM118.467 24.7126C118.482 24.1097 118.348 23.5893 118.07 23.1461C117.719 22.5793 117.172 22.296 116.444 22.296C115.779 22.296 115.237 22.5742 114.819 23.1255C114.479 23.5635 114.278 24.0942 114.216 24.7075L118.467 24.7126Z" fill="#1A1A1A"/>
<path id="Vector_4" d="M46.8421 13.0572C46.2746 13.0572 45.7845 13.0314 45.377 12.985V6.83778C45.9496 6.75016 46.5274 6.70378 47.1052 6.70894C49.4421 6.70894 50.5203 7.858 50.5203 9.72844C50.5152 11.8874 49.2461 13.0572 46.8421 13.0572ZM47.1877 7.49733C46.873 7.49733 46.6048 7.51794 46.383 7.56428V12.2327C46.5016 12.2533 46.7338 12.2584 47.0588 12.2584C48.5909 12.2584 49.4628 11.3877 49.4628 9.75939C49.4576 8.30116 48.6683 7.49733 47.1877 7.49733ZM53.8735 13.1035C52.5581 13.1035 51.7017 12.1193 51.7017 10.7848C51.7017 9.3935 52.5735 8.40422 53.9458 8.40422C55.2458 8.40422 56.1178 9.342 56.1178 10.7126C56.1178 12.1193 55.22 13.1035 53.8735 13.1035ZM53.9096 9.13589C53.1874 9.13589 52.7231 9.81089 52.7231 10.759C52.7231 11.6865 53.1977 12.3615 53.8994 12.3615C54.6061 12.3615 55.0756 11.6401 55.0756 10.7384C55.0807 9.82122 54.6164 9.13589 53.9096 9.13589ZM63.6288 8.49694L62.2205 13.0004H61.3022L60.7193 11.0476C60.5747 10.5683 60.4512 10.084 60.3583 9.5945H60.3377C60.2654 10.084 60.1258 10.5787 59.9762 11.0476L59.3571 13.0004H58.4288L57.1028 8.49694H58.1346L58.6452 10.6353C58.7642 11.1454 58.8671 11.6247 58.95 12.0833H58.9706C59.0429 11.7019 59.1664 11.2331 59.3421 10.6457L59.9818 8.49694H60.7966L61.4107 10.5993C61.5603 11.1094 61.6788 11.6092 61.7717 12.0833H61.7972C61.8645 11.6195 61.9624 11.13 62.102 10.5993L62.6488 8.49694H63.6288ZM68.8238 13.0004H67.8232V10.4138C67.8232 9.61511 67.5184 9.21833 66.9149 9.21833C66.322 9.21833 65.9143 9.72844 65.9143 10.321V13.0004H64.9137V9.78511C64.9137 9.38839 64.9031 8.96072 64.8775 8.49694H65.7597L65.8058 9.19255H65.8314C66.1001 8.71339 66.6468 8.40422 67.2609 8.40422C68.2048 8.40422 68.8288 9.12561 68.8288 10.3056L68.8238 13.0004ZM71.5837 13.0004H70.5831V6.43066H71.5837V13.0004ZM75.2414 13.1035C73.9259 13.1035 73.0694 12.1193 73.0694 10.7848C73.0694 9.3935 73.9415 8.40422 75.3137 8.40422C76.6135 8.40422 77.4857 9.342 77.4857 10.7126C77.4857 12.1193 76.5829 13.1035 75.2414 13.1035ZM75.2775 9.13589C74.555 9.13589 74.0911 9.81089 74.0911 10.759C74.0911 11.6865 74.5656 12.3615 75.2669 12.3615C75.9739 12.3615 76.4433 11.6401 76.4433 10.7384C76.4433 9.82122 75.9845 9.13589 75.2775 9.13589ZM81.437 13.0004L81.3647 12.48H81.3391C81.0348 12.8974 80.586 13.0983 80.0186 13.0983C79.2082 13.0983 78.6359 12.5316 78.6359 11.7741C78.6359 10.6611 79.6004 10.0892 81.2718 10.0892V10.0067C81.2718 9.41411 80.9575 9.11528 80.3385 9.11528C79.8946 9.11528 79.5025 9.22866 79.1621 9.45022L78.9607 8.79066C79.379 8.533 79.8996 8.39905 80.5087 8.39905C81.6845 8.39905 82.283 9.01739 82.283 10.2592V11.9184C82.283 12.3718 82.3035 12.7273 82.3503 12.9953L81.437 13.0004ZM81.2979 10.759C80.1833 10.759 79.6265 11.0269 79.6265 11.6659C79.6265 12.1399 79.9152 12.3718 80.3123 12.3718C80.8235 12.3718 81.2979 11.9853 81.2979 11.4546V10.759ZM87.1376 13.0004L87.0914 12.2791H87.0653C86.7766 12.8253 86.2916 13.1035 85.6158 13.1035C84.5273 13.1035 83.7224 12.1503 83.7224 10.8054C83.7224 9.39866 84.5584 8.40422 85.6981 8.40422C86.3021 8.40422 86.7299 8.60516 86.9674 9.01739H86.9879V6.43066H87.9886V11.7844C87.9886 12.2172 87.9991 12.6294 88.0247 12.9953H87.1376V13.0004ZM86.9929 10.3519C86.9929 9.72328 86.5752 9.18228 85.9356 9.18228C85.1925 9.18228 84.7386 9.84183 84.7386 10.7642C84.7386 11.6711 85.2081 12.2946 85.915 12.2946C86.5441 12.2946 86.9929 11.7483 86.9929 11.0991V10.3519ZM94.3549 13.1035C93.0395 13.1035 92.1829 12.1193 92.1829 10.7848C92.1829 9.3935 93.0545 8.40422 94.4272 8.40422C95.7271 8.40422 96.5987 9.342 96.5987 10.7126C96.5987 12.1193 95.7015 13.1035 94.3549 13.1035ZM94.3911 9.13589C93.6686 9.13589 93.2041 9.81089 93.2041 10.759C93.2041 11.6865 93.6791 12.3615 94.3805 12.3615C95.0875 12.3615 95.5569 11.6401 95.5569 10.7384C95.5619 9.82122 95.0975 9.13589 94.3911 9.13589ZM101.99 13.0004H100.989V10.4138C100.989 9.61511 100.685 9.21833 100.081 9.21833C99.4876 9.21833 99.0805 9.72844 99.0805 10.321V13.0004H98.0793V9.78511C98.0793 9.38839 98.0693 8.96072 98.0431 8.49694H98.9253L98.972 9.19255H98.9976C99.2663 8.71339 99.813 8.40422 100.427 8.40422C101.371 8.40422 101.995 9.12561 101.995 10.3056V13.0004H101.99ZM108.727 9.24922H107.623V11.434C107.623 11.9905 107.814 12.2688 108.206 12.2688C108.381 12.2688 108.531 12.2482 108.65 12.2224L108.676 12.9798C108.48 13.052 108.222 13.0932 107.897 13.0932C107.107 13.0932 106.633 12.6604 106.633 11.5164V9.24411H105.972V8.49178H106.633V7.66733L107.618 7.3685V8.49178H108.722L108.727 9.24922ZM114.036 13.0004H113.035V10.4344C113.035 9.63055 112.73 9.2235 112.127 9.2235C111.606 9.2235 111.126 9.57389 111.126 10.2901V13.0056H110.125V6.43066H111.126V9.13589H111.147C111.462 8.64639 111.921 8.40422 112.503 8.40422C113.458 8.40422 114.041 9.14616 114.041 10.321L114.036 13.0004ZM119.468 10.9909H116.46C116.481 11.8411 117.043 12.3254 117.879 12.3254C118.323 12.3254 118.735 12.2533 119.096 12.1142L119.251 12.8098C118.823 12.9953 118.323 13.0881 117.74 13.0881C116.331 13.0881 115.496 12.1966 115.496 10.8208C115.496 9.43989 116.352 8.40422 117.626 8.40422C118.776 8.40422 119.499 9.25439 119.499 10.5426C119.509 10.6869 119.499 10.8414 119.468 10.9909ZM118.549 10.2747C118.549 9.579 118.199 9.0895 117.559 9.0895C116.981 9.0895 116.528 9.58933 116.465 10.2747H118.549Z" fill="#1A1A1A"/>
</g>
<defs>
<clipPath id="clip0_698_439">
<rect width="136.271" height="40" fill="white" transform="translate(0.271484)"/>
</clipPath>
</defs>
</svg>
