<svg width="56" height="56" viewBox="0 0 56 56" fill="none" xmlns="http://www.w3.org/2000/svg">
<path d="M41.36 30.38L32.666 37.3333H20.9993V35H30.4843C30.6954 34.9999 30.9024 34.9425 31.0834 34.8341C31.2645 34.7256 31.4127 34.57 31.5123 34.384C31.6119 34.198 31.6592 33.9884 31.6491 33.7776C31.639 33.5668 31.5719 33.3627 31.455 33.187L29.383 30.079C28.958 29.4392 28.3812 28.9146 27.7041 28.5518C27.0271 28.1891 26.2708 27.9995 25.5027 28H6.99935C6.38051 28 5.78702 28.2458 5.34943 28.6834C4.91185 29.121 4.66602 29.7145 4.66602 30.3333V44.3333C4.66602 45.571 5.15768 46.758 6.03285 47.6332C6.90802 48.5083 8.09501 49 9.33268 49H31.8237C32.8214 49.0002 33.8077 48.7872 34.7164 48.3751C35.6251 47.963 36.4352 47.3614 37.0924 46.6107L51.3327 30.3333L47.9447 29.204C46.8362 28.8345 45.6529 28.7486 44.5027 28.954C43.3525 29.1594 42.272 29.6497 41.36 30.38ZM35.9397 28C37.7962 28 39.5767 27.2625 40.8894 25.9497C42.2022 24.637 42.9397 22.8565 42.9397 21C42.9397 14.6813 35.9397 7 35.9397 7C35.9397 7 28.9397 14.6323 28.9397 21C28.9397 22.8565 29.6772 24.637 30.9899 25.9497C32.3027 27.2625 34.0832 28 35.9397 28Z" fill="#D1D1D1"/>
</svg>
