<svg width="56" height="56" viewBox="0 0 56 56" fill="none" xmlns="http://www.w3.org/2000/svg">
<path d="M28.0001 13.3438C37.635 13.3438 45.4455 21.1542 45.4455 30.7891V43.5312C45.4455 43.9954 45.2611 44.4405 44.9329 44.7687C44.6047 45.0969 44.1596 45.2812 43.6955 45.2812H12.3048C11.8407 45.2812 11.3956 45.0969 11.0674 44.7687C10.7392 44.4405 10.5548 43.9954 10.5548 43.5312V30.7891C10.5548 21.1542 18.3653 13.3438 28.0001 13.3438ZM26.4689 3.71875H29.5314C29.6474 3.71875 29.7587 3.76484 29.8408 3.84689C29.9228 3.92894 29.9689 4.04022 29.9689 4.15625V9.40625C29.9689 9.52228 29.9228 9.63356 29.8408 9.71561C29.7587 9.79766 29.6474 9.84375 29.5314 9.84375H26.4689C26.3529 9.84375 26.2416 9.79766 26.1595 9.71561C26.0775 9.63356 26.0314 9.52228 26.0314 9.40625V4.15625C26.0314 4.04022 26.0775 3.92894 26.1595 3.84689C26.2416 3.76484 26.3529 3.71875 26.4689 3.71875ZM9.69351 10.4814C9.73414 10.4407 9.78239 10.4085 9.8355 10.3864C9.88861 10.3644 9.94554 10.3531 10.003 10.3531C10.0605 10.3531 10.1175 10.3644 10.1706 10.3864C10.2237 10.4085 10.2719 10.4407 10.3126 10.4814L14.0248 14.1936C14.1067 14.2756 14.1528 14.3869 14.1528 14.5029C14.1528 14.6188 14.1067 14.7301 14.0248 14.8121L11.8591 16.9777C11.7771 17.0597 11.6659 17.1058 11.5499 17.1058C11.4339 17.1058 11.3227 17.0597 11.2406 16.9777L7.52843 13.2655C7.44644 13.1835 7.40039 13.0723 7.40039 12.9563C7.40039 12.8403 7.44644 12.7291 7.52843 12.647L9.69405 10.4814H9.69351ZM46.3123 10.4814L48.4779 12.647C48.5597 12.729 48.6056 12.8402 48.6056 12.956C48.6056 13.0719 48.5597 13.183 48.4779 13.265L44.7657 16.9783C44.7251 17.019 44.6768 17.0512 44.6237 17.0732C44.5706 17.0953 44.5137 17.1066 44.4562 17.1066C44.3987 17.1066 44.3417 17.0953 44.2886 17.0732C44.2355 17.0512 44.1873 17.019 44.1466 16.9783L41.981 14.8127C41.9403 14.772 41.9081 14.7238 41.886 14.6707C41.864 14.6175 41.8527 14.5606 41.8527 14.5031C41.8527 14.4456 41.864 14.3887 41.886 14.3356C41.9081 14.2825 41.9403 14.2342 41.981 14.1936L45.6937 10.4814C45.7758 10.3994 45.887 10.3534 46.003 10.3534C46.119 10.3534 46.2302 10.3994 46.3123 10.4814ZM10.5001 48.7812H45.5001C45.9643 48.7812 46.4094 48.9656 46.7376 49.2938C47.0658 49.622 47.2501 50.0671 47.2501 50.5312V51.8438C47.2501 51.9598 47.2041 52.0711 47.122 52.1531C47.04 52.2352 46.9287 52.2812 46.8126 52.2812H9.18765C9.07162 52.2812 8.96034 52.2352 8.87829 52.1531C8.79624 52.0711 8.75015 51.9598 8.75015 51.8438V50.5312C8.75015 50.0671 8.93452 49.622 9.26271 49.2938C9.5909 48.9656 10.036 48.7812 10.5001 48.7812ZM18.5939 31.4453V45.2812H22.0939V31.4453H18.5939Z" fill="#D1D1D1"/>
</svg>
