<svg width="120" height="121" viewBox="0 0 120 121" fill="none" xmlns="http://www.w3.org/2000/svg">
<circle cx="60" cy="60.5" r="60" fill="#FFE5E3"/>
<path d="M84.2234 83.5411L69.6766 29.2517C69.2361 27.6077 67.5463 26.6321 65.9023 27.0726L37.7522 34.6154C36.1083 35.0559 35.1327 36.7457 35.5732 38.3897L50.12 92.6791C50.5605 94.3231 52.2503 95.2987 53.8942 94.8582L82.0443 87.3154C83.6883 86.8749 84.6639 85.1851 84.2234 83.5411Z" stroke="#1A1A1A" stroke-width="2"/>
<path d="M67.3124 89.2363C66.4687 89.4624 65.6014 88.9617 65.3753 88.1179C65.1492 87.2742 65.6499 86.4069 66.4937 86.1808C67.3374 85.9547 68.2047 86.4554 68.4308 87.2992C68.6569 88.1429 68.1562 89.0102 67.3124 89.2363Z" stroke="#1A1A1A"/>
<path d="M80.8652 79.0531L68.2041 31.8012C67.9123 30.7125 66.7933 30.0664 65.7046 30.3581L39.5652 37.3621C38.4765 37.6538 37.8304 38.7729 38.1221 39.8616L50.7832 87.1135C51.0749 88.2023 52.194 88.8483 53.2827 88.5566L79.4221 81.5526C80.5108 81.2609 81.1569 80.1418 80.8652 79.0531Z" stroke="#1A1A1A" stroke-width="2"/>
<path fill-rule="evenodd" clip-rule="evenodd" d="M53.2931 54.1147C50.1983 54.944 48.0958 57.1328 49.1876 61.2074C50.2794 65.2819 62.3226 70.0135 62.3226 70.0135C62.3226 70.0135 70.3866 59.8942 69.2948 55.8197C68.203 51.7451 65.2878 50.9008 62.193 51.73C60.3795 52.2159 58.9976 53.5075 58.3306 55.115C56.9492 54.0563 55.1066 53.6288 53.2931 54.1147Z" fill="#1A1A1A"/>
</svg>
