<svg width="25" height="24" viewBox="0 0 25 24" fill="none" xmlns="http://www.w3.org/2000/svg">
<path d="M18.2397 13.02L14.5137 16H9.51367V15H13.5787C13.6691 15 13.7578 14.9754 13.8354 14.9289C13.913 14.8824 13.9765 14.8157 14.0192 14.736C14.0619 14.6563 14.0822 14.5664 14.0778 14.4761C14.0735 14.3858 14.0448 14.2983 13.9947 14.223L13.1067 12.891C12.9245 12.6168 12.6773 12.392 12.3872 12.2365C12.097 12.081 11.7729 11.9998 11.4437 12H3.51367C3.24846 12 2.9941 12.1054 2.80657 12.2929C2.61903 12.4804 2.51367 12.7348 2.51367 13V19C2.51367 19.5304 2.72439 20.0391 3.09946 20.4142C3.47453 20.7893 3.98324 21 4.51367 21H14.1527C14.5803 21.0001 15.003 20.9088 15.3924 20.7322C15.7818 20.5556 16.129 20.2977 16.4107 19.976L22.5137 13L21.0617 12.516C20.5866 12.3576 20.0795 12.3208 19.5865 12.4089C19.0936 12.4969 18.6305 12.707 18.2397 13.02ZM15.9167 12C16.7123 12 17.4754 11.6839 18.038 11.1213C18.6006 10.5587 18.9167 9.79565 18.9167 9C18.9167 6.292 15.9167 3 15.9167 3C15.9167 3 12.9167 6.271 12.9167 9C12.9167 9.79565 13.2327 10.5587 13.7954 11.1213C14.358 11.6839 15.121 12 15.9167 12Z" fill="#D1D1D1"/>
</svg>
