<svg width="25" height="24" viewBox="0 0 25 24" fill="none" xmlns="http://www.w3.org/2000/svg">
<path d="M12.514 5.71875C16.6432 5.71875 19.9906 9.06609 19.9906 13.1953V18.6562C19.9906 18.8552 19.9116 19.0459 19.7709 19.1866C19.6303 19.3272 19.4395 19.4062 19.2406 19.4062H5.78745C5.58854 19.4062 5.39777 19.3272 5.25712 19.1866C5.11647 19.0459 5.03745 18.8552 5.03745 18.6562V13.1953C5.03745 9.06609 8.3848 5.71875 12.514 5.71875ZM11.8578 1.59375H13.1703C13.22 1.59375 13.2677 1.6135 13.3028 1.64867C13.338 1.68383 13.3578 1.73152 13.3578 1.78125V4.03125C13.3578 4.08098 13.338 4.12867 13.3028 4.16383C13.2677 4.199 13.22 4.21875 13.1703 4.21875H11.8578C11.808 4.21875 11.7603 4.199 11.7252 4.16383C11.69 4.12867 11.6703 4.08098 11.6703 4.03125V1.78125C11.6703 1.73152 11.69 1.68383 11.7252 1.64867C11.7603 1.6135 11.808 1.59375 11.8578 1.59375ZM4.66831 4.49203C4.68573 4.4746 4.7064 4.46077 4.72917 4.45133C4.75193 4.4419 4.77633 4.43704 4.80097 4.43704C4.82561 4.43704 4.85001 4.4419 4.87277 4.45133C4.89553 4.46077 4.91621 4.4746 4.93362 4.49203L6.52456 6.08297C6.5597 6.11813 6.57944 6.1658 6.57944 6.21551C6.57944 6.26521 6.5597 6.31289 6.52456 6.34805L5.59644 7.27617C5.56128 7.31131 5.5136 7.33105 5.4639 7.33105C5.41419 7.33105 5.36652 7.31131 5.33136 7.27617L3.74042 5.68523C3.70528 5.65007 3.68555 5.6024 3.68555 5.5527C3.68555 5.50299 3.70528 5.45532 3.74042 5.42016L4.66855 4.49203H4.66831ZM20.3621 4.49203L21.2902 5.42016C21.3253 5.45531 21.3449 5.50293 21.3449 5.55258C21.3449 5.60223 21.3253 5.64985 21.2902 5.685L19.6992 7.27641C19.6818 7.29384 19.6612 7.30767 19.6384 7.3171C19.6156 7.32654 19.5912 7.3314 19.5666 7.3314C19.542 7.3314 19.5176 7.32654 19.4948 7.3171C19.472 7.30767 19.4513 7.29384 19.4339 7.27641L18.5058 6.34828C18.4884 6.33087 18.4745 6.31019 18.4651 6.28743C18.4557 6.26466 18.4508 6.24027 18.4508 6.21563C18.4508 6.19098 18.4557 6.16659 18.4651 6.14382C18.4745 6.12106 18.4884 6.10038 18.5058 6.08297L20.097 4.49203C20.1321 4.45689 20.1798 4.43716 20.2295 4.43716C20.2792 4.43716 20.3269 4.45689 20.3621 4.49203ZM5.01401 20.9062H20.014C20.2129 20.9062 20.4037 20.9853 20.5443 21.1259C20.685 21.2666 20.764 21.4573 20.764 21.6562V22.2188C20.764 22.2685 20.7443 22.3162 20.7091 22.3513C20.6739 22.3865 20.6262 22.4062 20.5765 22.4062H4.45151C4.40179 22.4062 4.35409 22.3865 4.31893 22.3513C4.28377 22.3162 4.26401 22.2685 4.26401 22.2188V21.6562C4.26401 21.4573 4.34303 21.2666 4.48368 21.1259C4.62434 20.9853 4.8151 20.9062 5.01401 20.9062ZM8.48276 13.4766V19.4062H9.98276V13.4766H8.48276Z" fill="#D1D1D1"/>
</svg>
