<svg width="137" height="40" viewBox="0 0 137 40" fill="none" xmlns="http://www.w3.org/2000/svg">
<g clip-path="url(#clip0_698_421)">
<rect width="136.271" height="40" fill="white"/>
<path d="M132.972 0.555664H2.78148C1.55273 0.555664 0.556641 1.55059 0.556641 2.77789V37.2223C0.556641 38.4496 1.55273 39.4446 2.78148 39.4446H132.972C134.201 39.4446 135.197 38.4496 135.197 37.2223V2.77789C135.197 1.55059 134.201 0.555664 132.972 0.555664Z" stroke="#1A1A1A" stroke-width="2"/>
<path d="M48.7338 10.4753C48.7338 11.2407 48.5422 11.9105 48.0633 12.3889C47.4885 12.9629 46.818 13.25 45.9559 13.25C45.0937 13.25 44.4232 12.9629 43.8484 12.3889C43.2737 11.8148 42.9863 11.145 42.9863 10.2839C42.9863 9.42282 43.2737 8.75309 43.8484 8.17898C44.4232 7.60493 45.0937 7.31787 45.9559 7.31787C46.339 7.31787 46.7222 7.41354 47.1053 7.60493C47.4885 7.79626 47.7759 7.98765 47.9675 8.27465L47.4885 8.75304C47.1053 8.27465 46.6264 8.08332 45.9559 8.08332C45.3811 8.08332 44.8064 8.27465 44.4232 8.75304C43.9442 9.13576 43.7527 9.70987 43.7527 10.3796C43.7527 11.0494 43.9442 11.6234 44.4232 12.0061C44.9021 12.3889 45.3811 12.6759 45.9559 12.6759C46.6264 12.6759 47.1053 12.4845 47.5843 12.0061C47.8717 11.7191 48.0633 11.3364 48.0633 10.858H45.9559V10.1883H48.7338C48.7338 10.1883 48.7338 10.2839 48.7338 10.4753Z" fill="#1A1A1A" stroke="#1A1A1A" stroke-width="0.2" stroke-miterlimit="10"/>
<path d="M53.1398 8.08332H50.5535V9.9012H52.9482V10.571H50.5535V12.3889H53.1398V13.0586H49.7871V7.31787H53.1398V8.08332Z" fill="#1A1A1A" stroke="#1A1A1A" stroke-width="0.2" stroke-miterlimit="10"/>
<path d="M56.3013 13.0586H55.5347V7.98765H53.9062V7.31787H57.9293V7.98765H56.3013V13.0586Z" fill="#1A1A1A" stroke="#1A1A1A" stroke-width="0.2" stroke-miterlimit="10"/>
<path d="M60.707 13.0586V7.31787H61.4729V13.0586H60.707Z" fill="#1A1A1A" stroke="#1A1A1A" stroke-width="0.2" stroke-miterlimit="10"/>
<path d="M64.7304 13.0586H63.9645V7.98765H62.3359V7.31787H66.2633V7.98765H64.6348V13.0586H64.7304Z" fill="#1A1A1A" stroke="#1A1A1A" stroke-width="0.2" stroke-miterlimit="10"/>
<path d="M73.831 12.3889C73.2564 12.9629 72.5856 13.25 71.7235 13.25C70.8614 13.25 70.1912 12.9629 69.616 12.3889C69.0415 11.8148 68.7539 11.145 68.7539 10.2839C68.7539 9.42282 69.0415 8.75309 69.616 8.17898C70.1912 7.60493 70.8614 7.31787 71.7235 7.31787C72.5856 7.31787 73.2564 7.60493 73.831 8.17898C74.4055 8.75309 74.6931 9.42282 74.6931 10.2839C74.6931 11.0494 74.4055 11.8148 73.831 12.3889ZM70.1911 11.9105C70.5744 12.2932 71.1489 12.5802 71.7235 12.5802C72.2986 12.5802 72.8732 12.3889 73.2564 11.9105C73.6396 11.5278 73.9266 10.9537 73.9266 10.2839C73.9266 9.61415 73.7353 9.04009 73.2564 8.65737C72.8732 8.27465 72.2986 7.98765 71.7235 7.98765C71.1489 7.98765 70.5744 8.17898 70.1911 8.65737C69.8079 9.04009 69.5204 9.61415 69.5204 10.2839C69.5204 10.858 69.7123 11.4321 70.1911 11.9105Z" fill="#1A1A1A" stroke="#1A1A1A" stroke-width="0.2" stroke-miterlimit="10"/>
<path d="M75.7461 13.0586V7.31787H76.6082L79.3859 11.8148V10.6666V7.31787H80.1524V13.0586H79.3859L76.4163 8.37037V9.51848V13.0586H75.7461Z" fill="#1A1A1A" stroke="#1A1A1A" stroke-width="0.2" stroke-miterlimit="10"/>
<path d="M68.5609 21.4783C66.2621 21.4783 64.4422 23.2006 64.4422 25.5926C64.4422 27.8888 66.2621 29.7067 68.5609 29.7067C70.8597 29.7067 72.6802 27.9845 72.6802 25.5926C72.6802 23.2006 70.8597 21.4783 68.5609 21.4783ZM68.5609 27.9845C67.3156 27.9845 66.2621 26.9321 66.2621 25.4969C66.2621 24.0617 67.3156 23.0092 68.5609 23.0092C69.8063 23.0092 70.8597 23.966 70.8597 25.4969C70.8597 27.0277 69.8063 27.9845 68.5609 27.9845ZM59.6521 21.4783C57.3533 21.4783 55.5333 23.2006 55.5333 25.5926C55.5333 27.8888 57.3533 29.7067 59.6521 29.7067C61.9515 29.7067 63.7714 27.9845 63.7714 25.5926C63.7714 23.2006 61.9515 21.4783 59.6521 21.4783ZM59.6521 27.9845C58.4073 27.9845 57.3533 26.9321 57.3533 25.4969C57.3533 24.0617 58.4073 23.0092 59.6521 23.0092C60.8975 23.0092 61.9515 23.966 61.9515 25.4969C61.9515 27.0277 60.8975 27.9845 59.6521 27.9845ZM49.0195 22.7222V24.4444H53.1385C53.0428 25.4012 52.6596 26.1666 52.1806 26.645C51.6059 27.2191 50.6479 27.8888 49.0195 27.8888C46.4332 27.8888 44.5173 25.8796 44.5173 23.2963C44.5173 20.7129 46.5289 18.7037 49.0195 18.7037C50.3606 18.7037 51.4143 19.2777 52.1806 19.9475L53.4259 18.7037C52.3722 17.7469 51.0311 16.9814 49.1153 16.9814C45.6668 16.9814 42.6973 19.8518 42.6973 23.2963C42.6973 26.7407 45.6668 29.6111 49.1153 29.6111C51.0311 29.6111 52.3722 29.037 53.5217 27.7932C54.6712 26.645 55.0543 25.0184 55.0543 23.7747C55.0543 23.3919 55.0543 23.0092 54.9586 22.7222H49.0195ZM92.5091 24.0617C92.1258 23.1049 91.1675 21.4783 89.0606 21.4783C86.9531 21.4783 85.2288 23.1049 85.2288 25.5926C85.2288 27.8888 86.9531 29.7067 89.2519 29.7067C91.0718 29.7067 92.2215 28.5586 92.6047 27.8888L91.2637 26.9321C90.7848 27.6018 90.2097 28.0802 89.2519 28.0802C88.2941 28.0802 87.719 27.6975 87.2401 26.8364L92.7004 24.5401L92.5091 24.0617ZM86.9531 25.4012C86.9531 23.8703 88.1984 23.0092 89.0606 23.0092C89.7308 23.0092 90.4016 23.3919 90.5929 23.8703L86.9531 25.4012ZM82.4506 29.324H84.2705V17.3642H82.4506V29.324ZM79.5772 22.3394C79.0978 21.8611 78.3318 21.3827 77.3735 21.3827C75.3622 21.3827 73.4461 23.2006 73.4461 25.4969C73.4461 27.7932 75.2666 29.5154 77.3735 29.5154C78.3318 29.5154 79.0977 29.037 79.481 28.5586H79.5772V29.1327C79.5772 30.6635 78.7151 31.5246 77.3735 31.5246C76.32 31.5246 75.5536 30.7592 75.3623 30.0894L73.8293 30.7592C74.3082 31.8117 75.4579 33.1512 77.4697 33.1512C79.5772 33.1512 81.3014 31.9073 81.3014 28.9413V21.6697H79.5772V22.3394ZM77.4697 27.9845C76.2244 27.9845 75.1704 26.9321 75.1704 25.4969C75.1704 24.0617 76.2244 23.0092 77.4697 23.0092C78.7151 23.0092 79.6729 24.0617 79.6729 25.4969C79.6729 26.9321 78.7151 27.9845 77.4697 27.9845ZM100.843 17.3642H96.5321V29.324H98.352V24.8271H100.843C102.854 24.8271 104.77 23.3919 104.77 21.0957C104.77 18.7993 102.854 17.3642 100.843 17.3642ZM100.938 23.2006H98.352V19.0864H100.938C102.279 19.0864 103.046 20.2346 103.046 21.0957C102.95 22.0524 102.184 23.2006 100.938 23.2006ZM111.955 21.4783C110.613 21.4783 109.272 22.0524 108.793 23.2963L110.422 23.966C110.805 23.2963 111.38 23.1049 112.05 23.1049C113.008 23.1049 113.87 23.679 113.966 24.6358V24.7314C113.679 24.5401 112.912 24.2531 112.146 24.2531C110.422 24.2531 108.698 25.2098 108.698 26.9321C108.698 28.5586 110.134 29.6111 111.667 29.6111C112.912 29.6111 113.487 29.037 113.966 28.4629H114.062V29.4197H115.786V24.8271C115.595 22.6265 113.966 21.4783 111.955 21.4783ZM111.763 27.9845C111.188 27.9845 110.326 27.6975 110.326 26.9321C110.326 25.9753 111.38 25.6882 112.242 25.6882C113.008 25.6882 113.391 25.8796 113.87 26.0709C113.679 27.2191 112.721 27.9845 111.763 27.9845ZM121.821 21.6697L119.809 26.8364H119.714L117.606 21.6697H115.69L118.852 28.9413L117.031 32.9598H118.852L123.737 21.6697H121.821ZM105.728 29.324H107.548V17.3642H105.728V29.324Z" fill="#1A1A1A"/>
<path d="M9.96717 7.85485C9.66631 8.16235 9.49219 8.6411 9.49219 9.2611V31.3761C9.49219 31.9961 9.66631 32.4749 9.96717 32.7824L10.0414 32.8499L22.7342 20.4624V20.1699L10.0414 7.78235L9.96717 7.85485Z" fill="url(#paint0_linear_698_421)"/>
<path d="M26.9606 24.5935L22.7344 20.4623V20.1698L26.9657 16.0385L27.0605 16.0923L32.0715 18.876C33.5016 19.666 33.5016 20.966 32.0715 21.761L27.0605 24.5398L26.9606 24.5935Z" fill="url(#paint1_linear_698_421)"/>
<path d="M27.0599 24.5396L22.7338 20.3159L9.9668 32.7821C10.4418 33.2696 11.2164 33.3284 12.0972 32.8409L27.0599 24.5396Z" fill="url(#paint2_linear_698_421)"/>
<path d="M27.0599 16.0922L12.0972 7.79092C11.2164 7.30842 10.4418 7.36717 9.9668 7.85467L22.7338 20.3159L27.0599 16.0922Z" fill="url(#paint3_linear_698_421)"/>
</g>
<defs>
<linearGradient id="paint0_linear_698_421" x1="21.6072" y1="31.6064" x2="4.82965" y2="14.4223" gradientUnits="userSpaceOnUse">
<stop stop-color="#00A0FF"/>
<stop offset="0.0066" stop-color="#00A1FF"/>
<stop offset="0.2601" stop-color="#00BEFF"/>
<stop offset="0.5122" stop-color="#00D2FF"/>
<stop offset="0.7604" stop-color="#00DFFF"/>
<stop offset="1" stop-color="#00E3FF"/>
</linearGradient>
<linearGradient id="paint1_linear_698_421" x1="33.9337" y1="20.3146" x2="9.15051" y2="20.3146" gradientUnits="userSpaceOnUse">
<stop stop-color="#FFE000"/>
<stop offset="0.4087" stop-color="#FFBD00"/>
<stop offset="0.7754" stop-color="#FFA500"/>
<stop offset="1" stop-color="#FF9C00"/>
</linearGradient>
<linearGradient id="paint2_linear_698_421" x1="24.7075" y1="18.0198" x2="1.95575" y2="-5.28329" gradientUnits="userSpaceOnUse">
<stop stop-color="#FF3A44"/>
<stop offset="1" stop-color="#C31162"/>
</linearGradient>
<linearGradient id="paint3_linear_698_421" x1="6.75307" y1="40.1397" x2="16.9128" y2="29.7339" gradientUnits="userSpaceOnUse">
<stop stop-color="#32A071"/>
<stop offset="0.0685" stop-color="#2DA771"/>
<stop offset="0.4762" stop-color="#15CF74"/>
<stop offset="0.8009" stop-color="#06E775"/>
<stop offset="1" stop-color="#00F076"/>
</linearGradient>
<clipPath id="clip0_698_421">
<rect width="136.271" height="40" fill="white"/>
</clipPath>
</defs>
</svg>
