<svg width="120" height="121" viewBox="0 0 120 121" fill="none" xmlns="http://www.w3.org/2000/svg">
<circle cx="60" cy="60.5" r="60" fill="#FFE5E3"/>
<path fill-rule="evenodd" clip-rule="evenodd" d="M32.1111 49.4118C29.8713 49.4118 28.0555 50.9919 28.0555 52.9412V63.5295C28.0555 65.4787 29.8713 67.0589 32.1111 67.0589H40.2221V49.4118H32.1111ZM40.2221 70.5883H36.1666V84.7059C36.1666 85.6805 37.0744 86.4706 38.1944 86.4706C39.3143 86.4706 40.2221 85.6805 40.2221 84.7059V70.5883ZM32.1111 70.5883C27.6314 70.5883 24 67.4279 24 63.5295V52.9412C24 49.0428 27.6314 45.8824 32.1111 45.8824H42.2499C43.3698 45.8824 44.2777 46.6725 44.2777 47.6471V84.7059C44.2777 87.6298 41.5542 90 38.1944 90C34.8346 90 32.1111 87.6298 32.1111 84.7059V70.5883Z" fill="#1A1A1A"/>
<path fill-rule="evenodd" clip-rule="evenodd" d="M73.6429 30.2178C74.2918 30.5277 74.695 31.1207 74.695 31.7647V49.4118C79.1745 49.4118 82.806 52.5722 82.806 56.4706V58.2353C82.806 62.1337 79.1745 65.2941 74.695 65.2941V82.9412C74.695 83.5853 74.2918 84.1782 73.6429 84.4881C72.9943 84.798 72.2028 84.7757 71.5785 84.43L49.273 72.0771C48.6882 71.7531 48.334 71.1916 48.334 70.5882V44.1177C48.334 43.5143 48.6882 42.9528 49.273 42.6288L71.5785 30.2759C72.2028 29.9301 72.9943 29.9078 73.6429 30.2178ZM74.695 61.7647C76.9348 61.7647 78.7505 60.1846 78.7505 58.2353V56.4706C78.7505 54.5213 76.9348 52.9412 74.695 52.9412V61.7647ZM52.3895 45.0863V69.6196L70.6394 79.7264V34.9794L52.3895 45.0863Z" fill="#1A1A1A"/>
<path fill-rule="evenodd" clip-rule="evenodd" d="M94.6325 48.433C95.2536 49.2439 95.0018 50.3396 94.07 50.8802L87.9867 54.4096C87.055 54.9503 85.7959 54.7311 85.1748 53.9202C84.5535 53.1093 84.8054 52.0136 85.7371 51.4729L91.8204 47.9435C92.7522 47.403 94.0112 47.6222 94.6325 48.433ZM84.8342 60.0002C84.8342 59.0255 85.742 58.2355 86.8619 58.2355H94.973C96.0929 58.2355 97.0008 59.0255 97.0008 60.0002C97.0008 60.9748 96.0929 61.7649 94.973 61.7649H86.8619C85.742 61.7649 84.8342 60.9748 84.8342 60.0002ZM85.1748 66.0801C85.7959 65.2692 87.055 65.05 87.9867 65.5906L94.07 69.12C95.0018 69.6607 95.2536 70.7564 94.6325 71.5673C94.0112 72.3781 92.7522 72.5973 91.8204 72.0566L85.7371 68.5272C84.8054 67.9867 84.5535 66.891 85.1748 66.0801Z" fill="#1A1A1A"/>
</svg>
