<svg width="49" height="41" viewBox="0 0 49 41" fill="none" xmlns="http://www.w3.org/2000/svg">
<path fill-rule="evenodd" clip-rule="evenodd" d="M5.42105 13.4412C3.92784 13.4412 2.71736 14.4946 2.71736 15.7941V22.853C2.71736 24.1525 3.92784 25.2059 5.42105 25.2059H10.8284V13.4412H5.42105ZM10.8284 27.5588H8.12474V36.9706C8.12474 37.6203 8.72996 38.1471 9.47658 38.1471C10.2232 38.1471 10.8284 37.6203 10.8284 36.9706V27.5588ZM5.42105 27.5588C2.43464 27.5588 0.0136719 25.4519 0.0136719 22.853V15.7941C0.0136719 13.1952 2.43464 11.0883 5.42105 11.0883H12.1803C12.9269 11.0883 13.5321 11.615 13.5321 12.2647V36.9706C13.5321 38.9199 11.7165 40.5 9.47658 40.5C7.23671 40.5 5.42105 38.9199 5.42105 36.9706V27.5588Z" fill="#1A1A1A"/>
<path fill-rule="evenodd" clip-rule="evenodd" d="M33.109 0.645166C33.5416 0.851801 33.8103 1.24708 33.8103 1.67647V13.4412C36.7967 13.4412 39.2177 15.5481 39.2177 18.147V19.3235C39.2177 21.9224 36.7967 24.0294 33.8103 24.0294V35.7941C33.8103 36.2235 33.5416 36.6188 33.109 36.8254C32.6765 37.032 32.1489 37.0171 31.7327 36.7867L16.8624 28.5514C16.4725 28.3354 16.2363 27.961 16.2363 27.5588V9.91176C16.2363 9.50952 16.4725 9.13517 16.8624 8.91917L31.7327 0.683931C32.1489 0.453402 32.6765 0.438543 33.109 0.645166ZM33.8103 21.6765C35.3036 21.6765 36.514 20.623 36.514 19.3235V18.147C36.514 16.8475 35.3036 15.7941 33.8103 15.7941V21.6765ZM18.94 10.5575V26.913L31.1066 33.6509V3.81961L18.94 10.5575Z" fill="#1A1A1A"/>
<path fill-rule="evenodd" clip-rule="evenodd" d="M47.1007 12.7887C47.5148 13.3293 47.3469 14.0598 46.7257 14.4201L42.6702 16.7731C42.049 17.1335 41.2097 16.9874 40.7956 16.4468C40.3814 15.9062 40.5493 15.1758 41.1705 14.8153L45.226 12.4624C45.8472 12.102 46.6865 12.2481 47.1007 12.7887ZM40.5685 20.5001C40.5685 19.8504 41.1737 19.3237 41.9203 19.3237H47.3277C48.0743 19.3237 48.6795 19.8504 48.6795 20.5001C48.6795 21.1499 48.0743 21.6766 47.3277 21.6766H41.9203C41.1737 21.6766 40.5685 21.1499 40.5685 20.5001ZM40.7956 24.5534C41.2097 24.0128 42.049 23.8667 42.6702 24.2271L46.7257 26.58C47.3469 26.9405 47.5148 27.6709 47.1007 28.2115C46.6865 28.7521 45.8472 28.8982 45.226 28.5378L41.1705 26.1848C40.5493 25.8245 40.3814 25.094 40.7956 24.5534Z" fill="#1A1A1A"/>
</svg>
