<svg width="81" height="80" viewBox="0 0 81 80" fill="none" xmlns="http://www.w3.org/2000/svg">
<circle cx="40.0137" cy="40" r="40" fill="#FFE5E3"/>
<path fill-rule="evenodd" clip-rule="evenodd" d="M21.421 32.4412C19.9278 32.4412 18.7174 33.4946 18.7174 34.7941V41.853C18.7174 43.1525 19.9278 44.2059 21.421 44.2059H26.8284V32.4412H21.421ZM26.8284 46.5588H24.1247V55.9706C24.1247 56.6203 24.73 57.1471 25.4766 57.1471C26.2232 57.1471 26.8284 56.6203 26.8284 55.9706V46.5588ZM21.421 46.5588C18.4346 46.5588 16.0137 44.4519 16.0137 41.853V34.7941C16.0137 32.1952 18.4346 30.0883 21.421 30.0883H28.1803C28.9269 30.0883 29.5321 30.615 29.5321 31.2647V55.9706C29.5321 57.9199 27.7165 59.5 25.4766 59.5C23.2367 59.5 21.421 57.9199 21.421 55.9706V46.5588Z" fill="#1A1A1A"/>
<path fill-rule="evenodd" clip-rule="evenodd" d="M49.109 19.6452C49.5416 19.8518 49.8103 20.2471 49.8103 20.6765V32.4412C52.7967 32.4412 55.2177 34.5481 55.2177 37.147V38.3235C55.2177 40.9224 52.7967 43.0294 49.8103 43.0294V54.7941C49.8103 55.2235 49.5416 55.6188 49.109 55.8254C48.6765 56.032 48.1489 56.0171 47.7327 55.7867L32.8624 47.5514C32.4725 47.3354 32.2363 46.961 32.2363 46.5588V28.9118C32.2363 28.5095 32.4725 28.1352 32.8624 27.9192L47.7327 19.6839C48.1489 19.4534 48.6765 19.4385 49.109 19.6452ZM49.8103 40.6765C51.3036 40.6765 52.514 39.623 52.514 38.3235V37.147C52.514 35.8475 51.3036 34.7941 49.8103 34.7941V40.6765ZM34.94 29.5575V45.913L47.1066 52.6509V22.8196L34.94 29.5575Z" fill="#1A1A1A"/>
<path fill-rule="evenodd" clip-rule="evenodd" d="M63.1007 31.7887C63.5148 32.3293 63.3469 33.0598 62.7257 33.4201L58.6702 35.7731C58.049 36.1335 57.2097 35.9874 56.7956 35.4468C56.3814 34.9062 56.5493 34.1758 57.1705 33.8153L61.226 31.4624C61.8472 31.102 62.6865 31.2481 63.1007 31.7887ZM56.5685 39.5001C56.5685 38.8504 57.1737 38.3237 57.9203 38.3237H63.3277C64.0743 38.3237 64.6795 38.8504 64.6795 39.5001C64.6795 40.1499 64.0743 40.6766 63.3277 40.6766H57.9203C57.1737 40.6766 56.5685 40.1499 56.5685 39.5001ZM56.7956 43.5534C57.2097 43.0128 58.049 42.8667 58.6702 43.2271L62.7257 45.58C63.3469 45.9405 63.5148 46.6709 63.1007 47.2115C62.6865 47.7521 61.8472 47.8982 61.226 47.5378L57.1705 45.1848C56.5493 44.8245 56.3814 44.094 56.7956 43.5534Z" fill="#1A1A1A"/>
</svg>
