<svg width="81" height="80" viewBox="0 0 81 80" fill="none" xmlns="http://www.w3.org/2000/svg">
<circle cx="40.0137" cy="40" r="40" fill="#FFE5E3"/>
<path d="M56.2119 54.881L46.2191 19.4404C45.8672 18.1925 44.5754 17.4565 43.32 17.8213L25.1578 23.0984C23.9024 23.4632 23.1899 24.7816 23.5417 26.0295L33.5345 61.4701C33.8864 62.718 35.1782 63.454 36.4336 63.0892L54.5958 57.8121C55.8512 57.4473 56.5637 56.1289 56.2119 54.881Z" stroke="#1A1A1A" stroke-width="2"/>
<path d="M44.7265 58.8985C44.2697 59.0297 43.7949 58.7661 43.665 58.3119C43.535 57.8577 43.7982 57.3821 44.255 57.2509C44.7119 57.1197 45.1866 57.3833 45.3166 57.8376C45.4466 58.2918 45.1834 58.7673 44.7265 58.8985Z" stroke="#1A1A1A"/>
<path d="M54.0053 51.9626L45.3017 21.1261C45.0517 20.2403 44.1325 19.7145 43.2357 19.975L26.3644 24.875C25.4677 25.1355 24.962 26.0751 25.212 26.9609L33.9155 57.7974C34.1656 58.6832 35.0848 59.2089 35.9816 58.9485L52.8529 54.0484C53.7496 53.788 54.2553 52.8484 54.0053 51.9626Z" stroke="#1A1A1A" stroke-width="2"/>
<path fill-rule="evenodd" clip-rule="evenodd" d="M35.4796 36.0804C33.4651 36.6563 32.1139 38.1053 32.8711 40.744C33.6283 43.3826 41.5524 46.3204 41.5524 46.3204C41.5524 46.3204 46.7167 39.6409 45.9595 37.0022C45.2023 34.3635 43.2874 33.8483 41.2729 34.4242C40.0924 34.7617 39.2026 35.6183 38.7837 36.6722C37.8693 35.9995 36.6601 35.7429 35.4796 36.0804Z" fill="#1A1A1A"/>
</svg>
