<svg width="52" height="71" viewBox="0 0 52 71" fill="none" xmlns="http://www.w3.org/2000/svg">
<path d="M50.2231 58.0411L35.6763 3.75168C35.2358 2.10772 33.546 1.13213 31.9021 1.57262L3.75199 9.11542C2.10803 9.55592 1.13243 11.2457 1.57293 12.8897L16.1197 67.1791C16.5602 68.8231 18.25 69.7987 19.894 69.3582L48.0441 61.8154C49.688 61.3749 50.6636 59.6851 50.2231 58.0411Z" stroke="#1A1A1A" stroke-width="2"/>
<path d="M33.3117 63.7363C32.4679 63.9624 31.6006 63.4617 31.3746 62.6179C31.1485 61.7742 31.6492 60.9069 32.493 60.6808C33.3367 60.4547 34.204 60.9554 34.4301 61.7992C34.6562 62.6429 34.1554 63.5102 33.3117 63.7363Z" stroke="#1A1A1A"/>
<path d="M46.8654 53.5531L34.2043 6.30118C33.9126 5.21247 32.7935 4.56638 31.7048 4.8581L5.56544 11.8621C4.47673 12.1538 3.83064 13.2729 4.12235 14.3616L16.7835 61.6135C17.0752 62.7023 18.1943 63.3483 19.283 63.0566L45.4223 56.0526C46.5111 55.7609 47.1571 54.6418 46.8654 53.5531Z" stroke="#1A1A1A" stroke-width="2"/>
<path fill-rule="evenodd" clip-rule="evenodd" d="M19.2926 28.6147C16.1978 29.444 14.0953 31.6328 15.1871 35.7074C16.2789 39.7819 28.3221 44.5135 28.3221 44.5135C28.3221 44.5135 36.3861 34.3942 35.2943 30.3197C34.2025 26.2451 31.2873 25.4008 28.1925 26.23C26.379 26.7159 24.9971 28.0075 24.3301 29.6149C22.9487 28.5563 21.1061 28.1288 19.2926 28.6147Z" fill="#1A1A1A"/>
</svg>
