<svg width="52" height="71" viewBox="0 0 52 71" fill="none" xmlns="http://www.w3.org/2000/svg">
<path d="M50.2234 58.5411L35.6766 4.25167C35.2361 2.60772 33.5463 1.63212 31.9023 2.07262L3.75223 9.61541C2.10828 10.0559 1.13268 11.7457 1.57318 13.3897L16.12 67.6791C16.5605 69.3231 18.2503 70.2987 19.8942 69.8582L48.0443 62.3154C49.6883 61.8749 50.6639 60.1851 50.2234 58.5411Z" stroke="#1A1A1A" stroke-width="2"/>
<path d="M33.3124 64.2363C32.4687 64.4624 31.6014 63.9617 31.3753 63.1179C31.1492 62.2742 31.6499 61.4069 32.4937 61.1808C33.3374 60.9547 34.2047 61.4554 34.4308 62.2992C34.6569 63.1429 34.1562 64.0102 33.3124 64.2363Z" stroke="#1A1A1A"/>
<path d="M46.8652 54.0531L34.2041 6.80118C33.9123 5.71247 32.7933 5.06638 31.7046 5.3581L5.56519 12.3621C4.47648 12.6538 3.83039 13.7729 4.12211 14.8616L16.7832 62.1135C17.0749 63.2023 18.194 63.8483 19.2827 63.5566L45.4221 56.5526C46.5108 56.2609 47.1569 55.1418 46.8652 54.0531Z" stroke="#1A1A1A" stroke-width="2"/>
<path fill-rule="evenodd" clip-rule="evenodd" d="M19.2931 29.1147C16.1983 29.944 14.0958 32.1328 15.1876 36.2074C16.2794 40.2819 28.3226 45.0135 28.3226 45.0135C28.3226 45.0135 36.3866 34.8942 35.2948 30.8197C34.203 26.7451 31.2878 25.9008 28.193 26.73C26.3795 27.2159 24.9976 28.5075 24.3306 30.115C22.9492 29.0563 21.1066 28.6288 19.2931 29.1147Z" fill="#1A1A1A"/>
</svg>
