<svg width="120" height="120" viewBox="0 0 120 120" fill="none" xmlns="http://www.w3.org/2000/svg">
<circle cx="60" cy="60" r="60" fill="#FFE5E3"/>
<path d="M55.0363 89.9285C55.0363 89.8785 54.5483 88.84 53.952 87.6C52.1699 83.8951 51.5167 82.1872 51.1079 80.1627C50.4505 76.9068 50.7209 73.3059 51.8899 69.756C53.7263 64.1786 57.6038 59.2667 63.6207 54.8958C65.3124 53.6668 65.8261 53.2284 67.2665 51.7834C68.5818 50.4639 69.3238 49.5734 71.0514 47.2425C71.6195 46.4755 71.9948 46.043 72.1324 45.996C72.2944 45.941 72.4474 45.996 72.7922 46.131C73.639 46.521 74.2043 47.2965 74.4017 48.346C74.5397 49.0795 74.4417 50.6069 74.1897 51.7354C73.4299 55.1028 71.9086 57.1623 67.5663 60.7022C65.9083 62.0536 64.8102 63.1326 64.5931 63.6236C64.5031 63.8286 64.4091 64.2056 64.3836 64.4661C64.3436 64.8611 64.3686 64.9981 64.5256 65.2976C64.7906 65.8026 65.138 65.9751 65.7791 65.9206C66.9774 65.8156 68.4626 64.8986 70.604 62.9336C74.6078 59.2592 76.8265 54.3178 78.0303 46.3935C78.1183 45.8145 78.3393 44.1381 78.5218 42.6681C78.9123 39.5202 79.0911 38.4032 79.4189 37.0607C80.1879 33.9128 81.5443 31.3139 82.8863 30.4174C83.2013 30.2074 83.5241 30.0624 83.762 30.0274C84.104 29.9774 84.156 29.9774 84.3239 30.1874C84.8834 30.8379 85.1621 33.2928 85.1617 37.5672C85.1609 46.308 83.8258 55.8448 81.8691 61.0852C79.0943 68.517 74.5171 74.9908 69.2248 78.9697C67.494 80.2707 66.3617 80.9202 63.272 82.3847C61.2773 83.3296 59.7024 84.3556 58.3401 85.5966C57.0947 86.7311 55.9309 88.2325 55.391 89.401C55.1295 89.967 55.0363 90.104 55.0363 89.9285ZM48.325 71.8009C46.7641 68.664 45.5589 66.9775 42.1187 63.1156C39.001 59.6157 37.8206 58.0412 36.7835 56.0003C36.1713 54.7948 35.7739 53.6943 35.4836 52.4004C35.0876 50.6344 35.0041 49.8424 35.0001 47.8095C34.9961 45.7255 35.0866 44.9211 35.5198 43.1896C37.1848 36.5333 42.848 31.5649 49.141 31.2399C52.8472 31.0499 56.3297 32.1769 59.1379 34.4793L59.7597 34.9893L60.523 34.3923C62.3479 32.9658 64.4798 32.0119 66.77 31.5974C68.0563 31.3624 70.7415 31.3424 71.881 31.5474C73.7644 31.9024 75.9103 32.8423 77.6025 34.0608L78.0195 34.3608L77.82 35.0678C77.467 36.3178 77.0694 38.1722 76.8955 39.3782C76.8025 40.0242 76.711 40.6007 76.693 40.6597C76.673 40.7197 76.4445 40.4797 76.1768 40.1252C75.3453 39.0217 74.2067 38.0772 72.9341 37.4347C71.7825 36.8538 70.8002 36.6248 69.4567 36.6248C66.8879 36.6248 64.87 37.4717 63.0162 39.3277C62.6993 39.6427 61.7706 40.5674 61.0214 41.5029C60.2723 42.4379 60.7108 38.6703 60.0809 39.3083C61.2423 38.1321 61.2451 42.1243 60.523 41.1894C58.0811 38.0264 55.5938 36.1807 53.1836 35.5462C52.5502 35.3812 52.5789 34.9893 51.3026 34.9893C49.9215 34.9913 48.1926 34.8378 47.5404 35.0678C43.9848 36.2523 40.5692 39.1197 39.7027 43.1896C39.4632 44.3151 38.9026 48.3457 39.0756 49.6542C39.6864 54.2705 42.0426 58.4644 48.325 64.0368C49.3495 64.9453 50.5088 66.7206 51.4139 65.5694C51.5574 65.7044 51.575 65.4132 51.3026 65.9567C50.2825 67.9827 49.2989 70.8974 49.0745 72.5889C49.0445 72.8039 48.999 72.9839 48.9705 72.9839C48.9405 72.9839 48.6515 72.4464 48.3246 71.7894L48.325 71.8009Z" fill="#1A1A1A"/>
</svg>
