<svg width="81" height="80" viewBox="0 0 81 80" fill="none" xmlns="http://www.w3.org/2000/svg">
<circle cx="40.0137" cy="40" r="40" fill="#FFE5E3"/>
<path d="M36.3712 59.9523C36.3712 59.919 36.0459 59.2267 35.6483 58.4C34.4603 55.9301 34.0248 54.7914 33.7523 53.4418C33.314 51.2712 33.4943 48.8706 34.2736 46.504C35.4979 42.7857 38.0829 39.5111 42.0941 36.5972C43.2219 35.7779 43.5644 35.4856 44.5247 34.5223C45.4015 33.6426 45.8962 33.049 47.0479 31.495C47.4267 30.9837 47.6769 30.6954 47.7686 30.664C47.8766 30.6274 47.9786 30.664 48.2085 30.754C48.773 31.014 49.1499 31.531 49.2815 32.2307C49.3734 32.7196 49.3081 33.7379 49.1401 34.4903C48.6336 36.7352 47.6194 38.1082 44.7246 40.4681C43.6192 41.3691 42.8871 42.0884 42.7424 42.4157C42.6824 42.5524 42.6197 42.8037 42.6027 42.9774C42.5761 43.2407 42.5927 43.3321 42.6974 43.5317C42.8741 43.8684 43.1057 43.9834 43.5331 43.947C44.3319 43.877 45.322 43.2657 46.7497 41.9557C49.4189 39.5061 50.898 36.2119 51.7006 30.929C51.7592 30.543 51.9066 29.4254 52.0282 28.4454C52.2885 26.3468 52.4077 25.6021 52.6263 24.7072C53.1389 22.6085 54.0432 20.8759 54.9378 20.2783C55.1478 20.1383 55.3631 20.0416 55.5217 20.0183C55.7497 19.9849 55.7844 19.9849 55.8963 20.1249C56.2692 20.5586 56.455 22.1952 56.4548 25.0448C56.4543 30.872 55.5642 37.2299 54.2598 40.7234C52.4098 45.678 49.3584 49.9939 45.8302 52.6465C44.6764 53.5138 43.9215 53.9468 41.8617 54.9231C40.5319 55.5531 39.482 56.2371 38.5737 57.0644C37.7435 57.8207 36.9676 58.8217 36.6077 59.6007C36.4334 59.978 36.3712 60.0693 36.3712 59.9523ZM31.897 47.8673C30.8564 45.776 30.053 44.6517 27.7594 42.0771C25.681 39.7438 24.894 38.6942 24.2027 37.3335C23.7946 36.5299 23.5296 35.7962 23.3361 34.9336C23.0721 33.7563 23.0164 33.2283 23.0138 31.873C23.0111 30.4837 23.0714 29.9474 23.3602 28.7931C24.4702 24.3555 28.2457 21.0433 32.441 20.8266C34.9118 20.6999 37.2334 21.4512 39.1056 22.9862L39.5201 23.3262L40.029 22.9282C41.2456 21.9772 42.6668 21.3412 44.1937 21.0649C45.0512 20.9083 46.8413 20.8949 47.601 21.0316C48.8566 21.2682 50.2872 21.8949 51.4153 22.7072L51.6933 22.9072L51.5603 23.3785C51.325 24.2118 51.0599 25.4481 50.944 26.2521C50.882 26.6828 50.821 27.0671 50.809 27.1064C50.7956 27.1464 50.6433 26.9864 50.4649 26.7501C49.9106 26.0145 49.1515 25.3848 48.3031 24.9565C47.5353 24.5692 46.8804 24.4165 45.9848 24.4165C44.2722 24.4165 42.927 24.9812 41.6912 26.2185C41.4798 26.4285 40.8607 27.0449 40.3613 27.6686C39.8618 28.2919 40.1542 25.7802 39.7342 26.2055C40.5085 25.4214 40.5104 28.0829 40.029 27.4596C38.4011 25.351 36.7428 24.1204 35.1361 23.6975C34.7138 23.5875 34.7329 23.3262 33.882 23.3262C32.9613 23.3275 31.8087 23.2252 31.374 23.3785C29.0035 24.1682 26.7265 26.0798 26.1488 28.7931C25.9891 29.5434 25.6154 32.2305 25.7308 33.1028C26.1379 36.1804 27.7087 38.9763 31.897 42.6912C32.58 43.2969 33.3529 44.4804 33.9562 43.713C34.0519 43.803 34.0637 43.6088 33.882 43.9711C33.202 45.3218 32.5463 47.265 32.3967 48.3926C32.3767 48.5359 32.3464 48.6559 32.3274 48.6559C32.3074 48.6559 32.1147 48.2976 31.8967 47.8596L31.897 47.8673Z" fill="#1A1A1A"/>
</svg>
